<?xml version="1.0" encoding="UTF-8" standalone="no"?>
<!-- Created with Inkscape (http://www.inkscape.org/) -->

<svg
   xmlns:dc="http://purl.org/dc/elements/1.1/"
   xmlns:cc="http://creativecommons.org/ns#"
   xmlns:rdf="http://www.w3.org/1999/02/22-rdf-syntax-ns#"
   xmlns:svg="http://www.w3.org/2000/svg"
   xmlns="http://www.w3.org/2000/svg"
   version="1.1"
   width="58.438751"
   height="54.271461"
   id="svg3014">
  <defs
     id="defs3016" />
  <metadata
     id="metadata3019">
    <rdf:RDF>
      <cc:Work
         rdf:about="">
        <dc:format>image/svg+xml</dc:format>
        <dc:type
           rdf:resource="http://purl.org/dc/dcmitype/StillImage" />
        <dc:title></dc:title>
      </cc:Work>
    </rdf:RDF>
  </metadata>
  <path
     d="m 34.6875,23.541 c -4.68625,0 -15.9375,0 -15.9375,0 l 0,-12.291 c 0,0 11.875,0 15.9375,0 4.0625,0 5.93875,3.54 5.93875,6.145 0,2.605 -1.88875,6.146 -5.93875,6.146 z M 42.605,0 C 38.43875,0 0,0 0,0 l 0,54.271463 18.75,0 0,-20.269088 c 0,0 16.0425,0 23.855,0 6.45875,0 15.83375,-4.915 15.83375,-17.023875 C 58.43875,3.54 49.68875,0 42.605,0"
     id="path16"
     style="fill:#000000;fill-opacity:1;fill-rule:nonzero;stroke:none" />
</svg>
